<svg width="24" height="24" viewBox="0 0 24 24" fill="none" xmlns="http://www.w3.org/2000/svg">
<path d="M13.0719 2.75L13.2514 4.1065L13.4264 4.1295L14.0214 3.017L14.9599 3.347C14.8989 4.023 14.2029 5.1825 15.4254 5.6285C14.6259 5.8965 14.2019 6.167 13.4099 5.622C12.9539 5.308 12.2664 5.656 11.9989 5.7695C11.6709 5.908 11.2869 6.0545 11.3539 6.6085C11.3714 6.759 11.5194 6.905 11.1699 7.3535C10.4759 8.13 9.98194 8.051 9.11344 9.6075C8.04844 8.204 8.60044 5.303 10.3819 4.2705L10.1689 3.428L11.0854 3.029L11.8029 4.154L12.2084 2.75H13.0719Z" stroke="#05162C" stroke-linecap="round" stroke-linejoin="round"/>
<path d="M12.8265 18.6325C13.5926 17.0097 13.9025 15.209 13.723 13.4235C13.561 11.8625 13.6465 11.989 13.817 11.3035C15.056 12.292 16.606 12.121 17.872 11.811C18.0513 12.0958 18.1723 12.4134 18.2278 12.7453C18.2834 13.0772 18.2724 13.4169 18.1955 13.7445C17.8127 16.129 16.7026 18.337 15.017 20.0665C13.6175 21.501 12.2165 21.6425 10.6305 20.4315C8.39752 18.726 6.51502 16.7265 5.77252 13.9005C5.36902 12.3645 6.61752 9.95201 8.10252 9.38851C8.45252 9.24351 8.85502 9.33101 9.11352 9.60751M9.11352 9.60751C9.90577 10.357 10.5084 11.2842 10.8715 12.3125C11.1455 12.99 11.378 13.684 11.6475 14.421C10.3695 10.8195 9.81452 10.1885 9.11352 9.60751ZM9.11352 9.60751C9.55602 8.54001 10.786 7.72551 11.1695 7.35351C11.3195 7.19201 11.398 6.97651 11.385 6.75651C11.3483 6.66527 11.3316 6.56724 11.3359 6.469C11.3402 6.37076 11.3655 6.27458 11.41 6.18689C11.4545 6.0992 11.5172 6.02204 11.594 5.96058C11.6707 5.89911 11.7597 5.85477 11.855 5.83051C12.4455 5.58451 13.01 5.25051 13.675 5.79751C13.8462 5.88053 14.0325 5.92778 14.2226 5.93637C14.4127 5.94497 14.6025 5.91473 14.7805 5.84751C15.7355 5.54351 16.6605 5.14751 17.478 4.83301L18.572 7.03801C17.9035 7.50001 17.082 8.03151 16.3025 8.61901C15.6926 9.06671 15.1193 9.56227 14.588 10.101" stroke="#05162C" stroke-linecap="round" stroke-linejoin="round"/>
<path d="M9.1135 9.60774C7.8115 8.48874 6.3 10.9227 5.8885 12.1037C5.46188 11.3709 5.32541 10.5048 5.506 9.67624C5.9795 7.94824 6.489 6.22924 6.9645 4.57324H9.9535C9.66672 4.8203 9.4207 5.11104 9.2245 5.43474C8.91139 5.94927 8.7075 6.52273 8.62552 7.11944C8.54355 7.71614 8.58524 8.32334 8.748 8.90324C8.8415 9.15174 8.9645 9.38824 9.1135 9.60774ZM16.303 8.61924C16.9366 9.2523 17.2965 10.1086 17.3055 11.0042C17.3065 11.1802 17.3545 11.9292 17.198 11.9532C16.3747 12.1241 15.521 12.077 14.7215 11.8167C13.682 11.4352 13.8095 11.0427 14.2705 10.4767C14.8719 9.77908 15.5542 9.15552 16.303 8.61924Z" stroke="#05162C" stroke-linecap="round" stroke-linejoin="round"/>
</svg>
