<svg width="24" height="24" viewBox="0 0 24 24" fill="none" xmlns="http://www.w3.org/2000/svg">
<path d="M12.75 2.25C12.75 2.05109 12.6709 1.86032 12.5303 1.71967C12.3896 1.57902 12.1989 1.5 12 1.5C11.8011 1.5 11.6103 1.57902 11.4696 1.71967C11.329 1.86032 11.25 2.05109 11.25 2.25V10.1145L10.5 10.65V7.08C10.5 5.655 9.34496 4.5 7.91997 4.5C7.13397 4.5 6.38546 4.905 5.75546 5.388C5.10896 5.886 4.48496 6.5475 3.93146 7.2315C2.82747 8.5935 1.91097 10.1505 1.56147 10.9515C1.29747 11.559 0.971965 12.6915 0.727465 13.968C0.479965 15.2535 0.302965 16.7535 0.365965 18.1065C0.425965 19.407 0.715465 20.7915 1.62297 21.6015C2.62796 22.5015 4.05596 22.4355 5.73446 21.5955L8.42696 20.25C9.04986 19.9386 9.57372 19.4598 9.93986 18.8674C10.306 18.2751 10.4999 17.5924 10.5 16.896V15.75C10.5 15.5511 10.4209 15.3603 10.2803 15.2197C10.1396 15.079 9.94888 15 9.74996 15C9.55105 15 9.36029 15.079 9.21964 15.2197C9.07898 15.3603 8.99996 15.5511 8.99996 15.75V16.896C8.99995 17.3141 8.88346 17.7239 8.66355 18.0794C8.44364 18.435 8.12901 18.7223 7.75496 18.909L5.06396 20.2545C3.59696 20.988 2.94147 20.769 2.62197 20.4825C2.20197 20.1075 1.92147 19.281 1.86447 18.0375C1.80897 16.845 1.96647 15.4725 2.20047 14.25C2.43597 13.02 2.73597 12.0135 2.93696 11.55C3.22196 10.893 4.06196 9.45 5.09696 8.175C5.60996 7.542 6.15146 6.9765 6.67046 6.5775C7.20747 6.1635 7.62897 6 7.91997 6C8.2064 6 8.4811 6.11379 8.68364 6.31633C8.88618 6.51886 8.99996 6.79357 8.99996 7.08V11.721L6.31496 13.641C6.16439 13.7605 6.06547 13.9333 6.03863 14.1237C6.01179 14.3141 6.05907 14.5075 6.17073 14.664C6.28238 14.8205 6.44987 14.9281 6.63862 14.9647C6.82736 15.0013 7.02294 14.964 7.18496 14.8605L12 11.421L16.815 14.8605C16.8949 14.9214 16.9863 14.9656 17.0837 14.9904C17.181 15.0153 17.2824 15.0204 17.3817 15.0053C17.4811 14.9903 17.5764 14.9554 17.662 14.9028C17.7476 14.8501 17.8218 14.7809 17.8801 14.699C17.9384 14.6172 17.9797 14.5244 18.0015 14.4263C18.0233 14.3282 18.0251 14.2268 18.0069 14.1279C17.9887 14.0291 17.9508 13.9349 17.8955 13.851C17.8402 13.7671 17.7686 13.6952 17.685 13.6395L15 11.721V7.08C15 6.79357 15.1137 6.51886 15.3163 6.31633C15.5188 6.11379 15.7935 6 16.08 6C16.371 6 16.7925 6.165 17.3295 6.5775C17.8485 6.9765 18.3885 7.542 18.9045 8.1765C19.9365 9.4515 20.7765 10.893 21.063 11.55C21.264 12.0135 21.564 13.02 21.7995 14.25C22.0335 15.471 22.1895 16.845 22.1355 18.0375C22.0785 19.281 21.7995 20.1075 21.378 20.4825C21.0585 20.7675 20.403 20.988 18.936 20.2545L16.2435 18.909C15.8697 18.7221 15.5554 18.4347 15.3357 18.0792C15.1161 17.7236 14.9998 17.3139 15 16.896V15.75C15 15.5511 14.9209 15.3603 14.7803 15.2197C14.6396 15.079 14.4489 15 14.25 15C14.0511 15 13.8603 15.079 13.7196 15.2197C13.579 15.3603 13.5 15.5511 13.5 15.75V16.896C13.5 17.5924 13.6939 18.2751 14.0601 18.8674C14.4262 19.4598 14.9501 19.9386 15.573 20.25L18.2655 21.5955C19.9455 22.4355 21.3705 22.5 22.377 21.6015C23.2845 20.7915 23.574 19.407 23.634 18.1065C23.697 16.7535 23.52 15.2535 23.274 13.968C23.028 12.69 22.704 11.559 22.437 10.95C22.089 10.1505 21.1725 8.5935 20.0685 7.2315C19.5135 6.5475 18.891 5.886 18.2445 5.388C17.6145 4.905 16.866 4.5 16.08 4.5C14.655 4.5 13.5 5.655 13.5 7.08V10.65L12.75 10.1145V2.25Z" fill="#05162C"/>
</svg>
