<svg width="24" height="24" viewBox="0 0 24 24" fill="none" xmlns="http://www.w3.org/2000/svg">
<path d="M15.3788 5.46467C15.2382 5.60527 15.0474 5.68426 14.8485 5.68426C14.6497 5.68426 14.4589 5.60527 14.3183 5.46467C14.1127 5.2583 13.8683 5.09472 13.5991 4.98337C13.3299 4.87202 13.0413 4.81511 12.75 4.81592C12.135 4.81592 11.5853 5.06267 11.1818 5.46467C11.1122 5.5343 11.0295 5.58954 10.9385 5.62722C10.8475 5.66491 10.75 5.68431 10.6515 5.68431C10.4527 5.68431 10.2619 5.6053 10.1213 5.46467C10.0517 5.39504 9.99643 5.31237 9.95875 5.22139C9.92106 5.13041 9.90166 5.0329 9.90166 4.93442C9.90166 4.73554 9.98067 4.5448 10.1213 4.40417C10.4664 4.05884 10.8762 3.78497 11.3273 3.59823C11.7784 3.4115 12.2618 3.31556 12.75 3.31592C13.2383 3.31556 13.7217 3.4115 14.1728 3.59823C14.6239 3.78497 15.0337 4.05884 15.3788 4.40417C15.5194 4.54482 15.5984 4.73555 15.5984 4.93442C15.5984 5.13329 15.5194 5.32402 15.3788 5.46467ZM6.67055 4.74842C6.00801 5.13545 5.40879 5.62186 4.8938 6.19067L4.89305 6.19142C4.37631 6.76233 3.95057 7.40941 3.6308 8.10992C3.30253 8.82877 3.09112 9.59542 3.00455 10.3809C2.99372 10.4788 3.00227 10.5779 3.02973 10.6725C3.05718 10.7671 3.103 10.8553 3.16457 10.9322C3.22613 11.0091 3.30224 11.0731 3.38854 11.1206C3.47484 11.1681 3.56965 11.1981 3.66755 11.2089C3.76545 11.2198 3.86453 11.2112 3.95912 11.1837C4.05372 11.1563 4.14198 11.1105 4.21886 11.0489C4.29575 10.9873 4.35976 10.9112 4.40723 10.8249C4.45471 10.7386 4.48472 10.6438 4.49555 10.5459C4.56591 9.91888 4.73473 9.30686 4.9958 8.73242C5.50969 7.6069 6.35896 6.66778 7.4273 6.04367C7.51235 5.99398 7.58678 5.92803 7.64633 5.84957C7.70589 5.77112 7.74941 5.68171 7.77442 5.58643C7.79942 5.49116 7.80541 5.3919 7.79205 5.29431C7.77869 5.19672 7.74624 5.10272 7.69655 5.01767C7.64686 4.93262 7.58091 4.85819 7.50246 4.79864C7.424 4.73908 7.33459 4.69555 7.23931 4.67055C7.0469 4.62006 6.84231 4.64807 6.67055 4.74842ZM18.0001 13.1252C18.0001 12.9263 18.0791 12.7355 18.2197 12.5948C18.3604 12.4542 18.5511 12.3752 18.7501 12.3752C18.949 12.3752 19.1397 12.4542 19.2804 12.5948C19.421 12.7355 19.5 12.9263 19.5 13.1252C19.499 13.8018 19.2363 14.4518 18.7669 14.9392C18.2974 15.4265 17.6577 15.7133 16.9816 15.7397C17.1488 16.0839 17.2501 16.4664 17.2501 16.8752C17.2501 17.0741 17.171 17.2648 17.0304 17.4055C16.8897 17.5462 16.699 17.6252 16.5001 17.6252C16.3011 17.6252 16.1104 17.5462 15.9697 17.4055C15.8291 17.2648 15.7501 17.0741 15.7501 16.8752C15.7501 16.5768 15.6315 16.2907 15.4205 16.0797C15.2096 15.8687 14.9234 15.7502 14.625 15.7502H9.98855C9.78964 15.7502 9.59887 15.6712 9.45822 15.5305C9.31757 15.3898 9.23855 15.1991 9.23855 15.0002C9.23855 14.8013 9.31757 14.6105 9.45822 14.4698C9.59887 14.3292 9.78964 14.2502 9.98855 14.2502H11.6251C11.9232 14.2496 12.209 14.1309 12.4199 13.92C12.6307 13.7092 12.7495 13.4234 12.75 13.1252C12.75 12.9263 12.8291 12.7355 12.9697 12.5948C13.1104 12.4542 13.3011 12.3752 13.5 12.3752C13.699 12.3752 13.8897 12.4542 14.0304 12.5948C14.171 12.7355 14.25 12.9263 14.25 13.1252C14.25 13.5294 14.151 13.9082 13.9875 14.2502H16.8751C17.1732 14.2496 17.459 14.1309 17.6699 13.92C17.8807 13.7092 17.9995 13.4234 18.0001 13.1252Z" fill="#05162C"/>
<path d="M24 12.5332C24 12.0622 23.9662 11.6062 23.9145 11.1637C23.2342 5.30025 18.261 0.7515 12.2167 0.75H11.2928C5.055 0.75075 0.00075 5.805 0 12.0427C0 12.6281 0.11529 13.2077 0.339288 13.7485C0.563286 14.2892 0.891604 14.7806 1.3055 15.1945C2.14139 16.0304 3.27511 16.5 4.45725 16.5H5.388C5.64024 17.567 6.24513 18.5177 7.10479 19.1982C7.96444 19.8788 9.02858 20.2494 10.125 20.25H15.453L17.79 22.587C17.8687 22.6656 17.9688 22.7191 18.0779 22.7407C18.1869 22.7624 18.3 22.7512 18.4027 22.7087C18.5054 22.6662 18.5932 22.5942 18.655 22.5017C18.7169 22.4093 18.7499 22.3007 18.75 22.1895V20.1877C19.9028 20.044 20.989 19.5683 21.8763 18.8185C22.7637 18.0687 23.4139 17.0771 23.748 15.9645C23.8552 15.606 23.9167 15.228 23.9557 14.8432L23.958 14.8372C23.979 14.7682 24 14.7 24 14.625C23.9995 14.579 23.9975 14.5335 23.994 14.4885L23.9888 14.4022C23.9893 14.3782 23.991 14.355 23.994 14.3325C23.998 14.305 24 14.2775 24 14.25V12.5332ZM22.311 15.5362C22.0341 16.4646 21.465 17.2788 20.6883 17.8578C19.9116 18.4368 18.9688 18.7497 18 18.75H10.125C9.28342 18.7496 8.47237 18.4347 7.85091 17.8673C7.22945 17.2998 6.84243 16.5206 6.76575 15.6825L6.76125 15.6345C6.78632 14.6604 7.19153 13.7348 7.89021 13.0556C8.58889 12.3764 9.52559 11.9975 10.5 12C10.6989 12 10.8897 11.921 11.0303 11.7803C11.171 11.6397 11.25 11.4489 11.25 11.25C11.25 11.0511 11.171 10.8603 11.0303 10.7197C10.8897 10.579 10.6989 10.5 10.5 10.5C9.61926 10.5 8.75266 10.7215 7.98 11.1442C7.83253 10.8129 7.62619 10.511 7.371 10.2532C7.23037 10.1126 7.03963 10.0336 6.84075 10.0336C6.64187 10.0336 6.45113 10.1126 6.3105 10.2532C6.16987 10.3939 6.09086 10.5846 6.09086 10.7835C6.09086 10.9824 6.16987 11.1731 6.3105 11.3137C6.5235 11.5275 6.66825 11.8012 6.723 12.108C5.96082 12.9003 5.46658 13.9118 5.31 15H4.45725C4.0687 15.0006 3.68387 14.9244 3.32489 14.7757C2.9659 14.6271 2.63986 14.4089 2.3655 14.1337C2.09059 13.8594 1.87261 13.5335 1.72408 13.1746C1.57554 12.8158 1.49939 12.4311 1.5 12.0427C1.5 9.336 2.595 6.8925 4.368 5.118C5.27598 4.20678 6.3553 3.48423 7.54378 2.99201C8.73225 2.49978 10.0064 2.2476 11.2928 2.25H12.2167C17.2342 2.2485 21.4012 5.85 22.305 10.6042C21.478 9.79769 20.4227 9.26532 19.2825 9.0795C19.6597 8.388 19.875 7.59375 19.875 6.75C19.875 6.55109 19.796 6.36032 19.6553 6.21967C19.5147 6.07902 19.3239 6 19.125 6C18.9261 6 18.7353 6.07902 18.5947 6.21967C18.454 6.36032 18.375 6.55109 18.375 6.75C18.3758 7.19333 18.2889 7.63245 18.1193 8.04204C17.9496 8.45163 17.7006 8.82359 17.3865 9.1365C17.0736 9.45056 16.7016 9.6996 16.292 9.86925C15.8824 10.0389 15.4433 10.1258 15 10.125C14.8011 10.125 14.6103 10.204 14.4697 10.3447C14.329 10.4853 14.25 10.6761 14.25 10.875C14.25 11.0739 14.329 11.2647 14.4697 11.4053C14.6103 11.546 14.8011 11.625 15 11.625C16.1595 11.6257 17.281 11.2112 18.1613 10.4565L18.1733 10.4602C18.2384 10.4827 18.3062 10.4961 18.375 10.5C19.5165 10.5 20.5432 10.9605 21.2917 11.7082C22.0102 12.4273 22.4366 13.3871 22.4888 14.4022C22.4782 14.7863 22.4184 15.1674 22.311 15.5362Z" fill="#05162C"/>
</svg>
