<svg width="20" height="20" viewBox="0 0 20 20" fill="none" xmlns="http://www.w3.org/2000/svg">
<path fill-rule="evenodd" clip-rule="evenodd" d="M5.12023 1.74583C5.89206 1.68388 6.62475 1.38031 7.21423 0.878232C7.87983 0.311341 8.72554 0 9.59983 0C10.4741 0 11.3198 0.311341 11.9854 0.878232C12.5749 1.38031 13.3076 1.68388 14.0794 1.74583C14.9511 1.8155 15.7696 2.19339 16.3879 2.81175C17.0063 3.43011 17.3842 4.24851 17.4538 5.12023C17.515 5.89183 17.8186 6.62503 18.3214 7.21423C18.8883 7.87983 19.1997 8.72554 19.1997 9.59983C19.1997 10.4741 18.8883 11.3198 18.3214 11.9854C17.8194 12.5749 17.5158 13.3076 17.4538 14.0794C17.3842 14.9511 17.0063 15.7696 16.3879 16.3879C15.7696 17.0063 14.9511 17.3842 14.0794 17.4538C13.3076 17.5158 12.5749 17.8194 11.9854 18.3214C11.3198 18.8883 10.4741 19.1997 9.59983 19.1997C8.72554 19.1997 7.87983 18.8883 7.21423 18.3214C6.62475 17.8194 5.89206 17.5158 5.12023 17.4538C4.24851 17.3842 3.43011 17.0063 2.81175 16.3879C2.19339 15.7696 1.8155 14.9511 1.74583 14.0794C1.68388 13.3076 1.38031 12.5749 0.878232 11.9854C0.311341 11.3198 0 10.4741 0 9.59983C0 8.72554 0.311341 7.87983 0.878232 7.21423C1.38031 6.62475 1.68388 5.89206 1.74583 5.12023C1.8155 4.24851 2.19339 3.43011 2.81175 2.81175C3.43011 2.19339 4.24851 1.8155 5.12023 1.74583ZM14.0482 8.04823C14.2668 7.82191 14.3878 7.51879 14.385 7.20415C14.3823 6.88951 14.2561 6.58854 14.0336 6.36605C13.8111 6.14356 13.5101 6.01736 13.1955 6.01462C12.8809 6.01189 12.5778 6.13284 12.3514 6.35143L8.39983 10.303L6.84823 8.75143C6.62191 8.53284 6.31879 8.41189 6.00415 8.41462C5.68951 8.41736 5.38854 8.54356 5.16605 8.76605C4.94356 8.98854 4.81736 9.28951 4.81462 9.60415C4.81189 9.91879 4.93284 10.2219 5.15143 10.4482L7.55143 12.8482C7.77647 13.0732 8.08164 13.1996 8.39983 13.1996C8.71803 13.1996 9.0232 13.0732 9.24823 12.8482L14.0482 8.04823Z" fill="#145DB8"/>
</svg>
