<svg width="40" height="40" viewBox="0 0 40 40" fill="none" xmlns="http://www.w3.org/2000/svg">
<path d="M12.9388 20.1526C12.9388 21.0001 12.265 21.6451 11.4113 21.6451C10.7725 21.6451 10.3 21.2838 10.3 20.6038C10.3 19.7563 10.96 19.0763 11.8075 19.0763C12.4538 19.0763 12.9388 19.4726 12.9388 20.1526ZM5.59125 16.7851H5.265C5.16125 16.7851 5.05625 16.8551 5.0425 16.9726L4.74375 18.8276L5.31375 18.8063C6.0775 18.8063 6.6675 18.7026 6.80625 17.8201C6.96625 16.8888 6.37625 16.7851 5.59125 16.7851ZM25.3137 16.7851H25.0012C24.8762 16.7851 24.7925 16.8551 24.7787 16.9726L24.4875 18.8276L25.0425 18.8063C25.945 18.8063 26.57 18.5976 26.57 17.5563C26.5625 16.8201 25.905 16.7851 25.3137 16.7851ZM40.0013 7.7776V32.2226C40.0003 33.1065 39.6487 33.9538 39.0237 34.5788C38.3987 35.2038 37.5514 35.5554 36.6675 35.5563H3.33375C2.44989 35.5554 1.60251 35.2038 0.977529 34.5788C0.352545 33.9538 0.000992545 33.1065 0 32.2226V7.7776C0.000992545 6.89374 0.352545 6.04636 0.977529 5.42138C1.60251 4.79639 2.44989 4.44484 3.33375 4.44385H36.6675C37.5514 4.44484 38.3987 4.79639 39.0237 5.42138C39.6487 6.04636 40.0003 6.89374 40.0013 7.7776ZM8.91125 17.1801C8.91125 15.7213 7.78625 15.2351 6.50125 15.2351H3.72375C3.63403 15.2358 3.54768 15.2694 3.48108 15.3295C3.41449 15.3897 3.3723 15.4722 3.3625 15.5613L2.22375 22.6513C2.2025 22.7901 2.3075 22.9288 2.44625 22.9288H3.76625C3.95375 22.9288 4.1275 22.7276 4.14875 22.5326L4.46125 20.6851C4.53125 20.1851 5.3775 20.3588 5.71125 20.3588C7.6975 20.3588 8.9125 19.1788 8.9125 17.1788L8.91125 17.1801ZM14.7587 17.7913H13.4388C13.175 17.7913 13.1613 18.1738 13.1475 18.3613C12.745 17.7713 12.1613 17.6663 11.5013 17.6663C9.8 17.6663 8.50125 19.1588 8.50125 20.8051C8.50125 22.1588 9.34875 23.0413 10.7025 23.0413C11.3275 23.0413 12.105 22.7013 12.5425 22.2151C12.5024 22.3556 12.4789 22.5004 12.4725 22.6463C12.4725 22.8063 12.5425 22.9238 12.695 22.9238H13.89C14.0775 22.9238 14.2375 22.7226 14.2725 22.5276L14.9813 18.0626C15.0025 17.9301 14.8975 17.7913 14.7587 17.7913ZM17.5713 24.5901L21.995 18.1588C22.03 18.1238 22.03 18.0888 22.03 18.0413C22.03 17.9238 21.9262 17.7988 21.8075 17.7988H20.4737C20.4118 17.8016 20.3512 17.8187 20.297 17.8489C20.2428 17.879 20.1963 17.9214 20.1612 17.9726L18.3213 20.6813L17.5575 18.0776C17.5284 17.9987 17.4765 17.9302 17.4084 17.8808C17.3403 17.8314 17.2591 17.8033 17.175 17.8001H15.8763C15.7575 17.8001 15.6538 17.9251 15.6538 18.0426C15.6538 18.1263 17.0075 21.9876 17.1263 22.3551C16.9387 22.6188 15.7025 24.3413 15.7025 24.5501C15.7025 24.6751 15.8063 24.7726 15.925 24.7726H17.2588C17.3211 24.7682 17.3816 24.7497 17.4357 24.7186C17.4898 24.6874 17.5362 24.6443 17.5713 24.5926V24.5901ZM28.6337 17.1801C28.6337 15.7213 27.5088 15.2351 26.2238 15.2351H23.4662C23.3741 15.2351 23.285 15.268 23.2149 15.3278C23.1448 15.3876 23.0983 15.4704 23.0837 15.5613L21.9587 22.6451C21.945 22.7838 22.0487 22.9226 22.1812 22.9226H23.605C23.7437 22.9226 23.8475 22.8188 23.8825 22.7001L24.195 20.6863C24.265 20.1863 25.1125 20.3601 25.445 20.3601C27.4175 20.3601 28.6337 19.1801 28.6337 17.1801ZM34.48 17.7913H33.16C32.8963 17.7913 32.8825 18.1738 32.8612 18.3613C32.4787 17.7713 31.8888 17.6663 31.215 17.6663C29.5138 17.6663 28.215 19.1588 28.215 20.8051C28.215 22.1588 29.0625 23.0413 30.4163 23.0413C31.0625 23.0413 31.84 22.7013 32.2562 22.2151C32.235 22.3188 32.1862 22.5413 32.1862 22.6463C32.1862 22.8063 32.2562 22.9238 32.4087 22.9238H33.61C33.7975 22.9238 33.9575 22.7226 33.9925 22.5276L34.7012 18.0626C34.7225 17.9301 34.6187 17.7913 34.48 17.7913ZM37.7787 15.4788C37.7787 15.3401 37.675 15.2363 37.5563 15.2363H36.2713C36.1675 15.2363 36.0625 15.3201 36.0487 15.4238L34.9237 22.6463L34.9038 22.6813C34.9038 22.8063 35.0075 22.9238 35.1462 22.9238H36.2925C36.4663 22.9238 36.64 22.7226 36.6538 22.5276L37.7787 15.5001V15.4788ZM31.5287 19.0763C30.6812 19.0763 30.0212 19.7501 30.0212 20.6038C30.0212 21.2776 30.5075 21.6451 31.1462 21.6451C31.98 21.6451 32.6537 21.0063 32.6537 20.1526C32.6612 19.4726 32.175 19.0763 31.5287 19.0763Z" fill="#145DB8"/>
</svg>
