<svg width="24" height="24" viewBox="0 0 24 24" fill="none" xmlns="http://www.w3.org/2000/svg">
<path d="M9.00002 5.99989C9.50002 6.49989 10.503 6.41189 12 5.17589M12 5.17589C11.7787 4.99456 11.549 4.78589 11.311 4.54989C9.00502 2.26589 5.86502 2.71289 4.39402 4.54989C3.37802 5.81989 0.778024 8.97989 7.14202 20.2399C7.40602 20.7059 7.93102 20.9999 8.49602 20.9999C9.39802 20.9999 10.103 20.2799 10.132 19.4399C10.195 17.6579 10.54 15.6029 12 15.6029C13.46 15.6029 13.806 17.6579 13.868 19.4399C13.897 20.2799 14.602 20.9999 15.504 20.9999C16.069 20.9999 16.594 20.7059 16.858 20.2399C23.223 8.97889 20.622 5.81989 19.606 4.54989C18.135 2.71289 14.995 2.26589 12.689 4.54989C12.451 4.78523 12.2214 4.99389 12 5.17589Z" stroke="#05162C" stroke-width="1.5" stroke-linecap="round" stroke-linejoin="round"/>
</svg>
