<svg width="32" height="32" viewBox="0 0 32 32" fill="none" xmlns="http://www.w3.org/2000/svg">
<path d="M7.65331 21.3334C7.79997 20.6801 7.53331 19.7467 7.06664 19.2801L3.82664 16.0401C2.81331 15.0267 2.41331 13.9467 2.70664 13.0134C3.01331 12.0801 3.95998 11.4401 5.37331 11.2001L9.53331 10.5067C10.1333 10.4001 10.8666 9.86675 11.1466 9.32008L13.44 4.72008C14.1066 3.40008 15.0133 2.66675 16 2.66675C16.9866 2.66675 17.8933 3.40008 18.56 4.72008L20.8533 9.32008C21.0266 9.66675 21.3866 10.0001 21.7733 10.2267L7.41331 24.5868C7.22664 24.7734 6.90664 24.6001 6.95997 24.3334L7.65331 21.3334Z" fill="#BBC1C7"/>
<path d="M24.9334 19.28C24.4534 19.76 24.1867 20.68 24.3467 21.3334L25.2667 25.3467C25.6534 27.0134 25.4134 28.2667 24.5867 28.8667C24.2534 29.1067 23.8534 29.2267 23.3867 29.2267C22.7067 29.2267 21.9067 28.9734 21.0267 28.4534L17.1201 26.1334C16.5067 25.7734 15.4934 25.7734 14.8801 26.1334L10.9734 28.4534C9.4934 29.32 8.22673 29.4667 7.4134 28.8667C7.10673 28.64 6.88007 28.3334 6.7334 27.9334L22.9467 11.72C23.5601 11.1067 24.4267 10.8267 25.2667 10.9734L26.6134 11.2C28.0267 11.44 28.9734 12.08 29.2801 13.0134C29.5734 13.9467 29.1734 15.0267 28.1601 16.04L24.9334 19.28Z" fill="#BBC1C7"/>
</svg>
