<svg width="18" height="20" viewBox="0 0 18 20" fill="none" xmlns="http://www.w3.org/2000/svg">
<path fill-rule="evenodd" clip-rule="evenodd" d="M0 8.41666C0 5.21907 0 3.62028 0.377516 3.08241C0.755031 2.54454 2.25832 2.02996 5.26491 1.00079L5.83772 0.804717C7.40498 0.268239 8.18861 0 9 0C9.81139 0 10.595 0.268239 12.1623 0.804717L12.7351 1.00079C15.7417 2.02996 17.245 2.54454 17.6225 3.08241C18 3.62028 18 5.21907 18 8.41666V9.99136C18 15.6294 13.761 18.3655 11.1014 19.5273C10.38 19.8424 10.0193 20 9 20C7.98074 20 7.62001 19.8424 6.89856 19.5273C4.23896 18.3655 0 15.6294 0 9.99136V8.41666ZM9 5.25C9.41421 5.25 9.75 5.58579 9.75 6V10C9.75 10.4142 9.41421 10.75 9 10.75C8.58579 10.75 8.25 10.4142 8.25 10V6C8.25 5.58579 8.58579 5.25 9 5.25ZM9 14C9.55229 14 10 13.5523 10 13C10 12.4477 9.55229 12 9 12C8.44771 12 8 12.4477 8 13C8 13.5523 8.44771 14 9 14Z" fill="#FFA726"/>
</svg>
