<svg width="131" height="131" viewBox="0 0 131 131" fill="none" xmlns="http://www.w3.org/2000/svg">
<rect width="131" height="131" rx="65.5" fill="#FFF6E9"/>
<path d="M49.0826 59.8038C55.0162 49.3044 57.983 44.0547 62.0541 42.7033C64.2938 41.9599 66.7063 41.9599 68.946 42.7033C73.0171 44.0547 75.9839 49.3044 81.9175 59.8038C87.8511 70.3032 90.8179 75.5529 89.9279 79.8304C89.4383 82.1836 88.2321 84.3181 86.482 85.9279C83.3009 88.8541 77.3673 88.8541 65.5 88.8541C53.6328 88.8541 47.6992 88.8541 44.5181 85.9279C42.768 84.3181 41.5617 82.1836 41.0721 79.8304C40.1821 75.5529 43.1489 70.3032 49.0826 59.8038Z" fill="#FFF6E9" stroke="#FFA726" stroke-width="1.5"/>
<path fill-rule="evenodd" clip-rule="evenodd" d="M65.4803 75.3333H65.5024H65.4803Z" fill="#FFF6E9"/>
<path d="M65.4803 75.3333H65.5024" stroke="#FFA726" stroke-width="2" stroke-linecap="round" stroke-linejoin="round"/>
<path d="M65.5 67.9583L65.5 58.1249" stroke="#FFA726" stroke-width="1.5" stroke-linecap="round" stroke-linejoin="round"/>
</svg>
