<svg width="24" height="24" viewBox="0 0 24 24" fill="none" xmlns="http://www.w3.org/2000/svg">
<path fill-rule="evenodd" clip-rule="evenodd" d="M14.974 2.12015C15.2073 2.24595 15.3811 2.45923 15.4572 2.71312C15.5334 2.96701 15.5056 3.24074 15.38 3.47415L12.406 8.99815C11.473 10.7302 10.049 12.5412 8.48799 13.7912C7.84399 14.3062 7.16099 14.9532 6.76199 15.6262C6.37699 16.2742 6.33599 16.7832 6.62199 17.2602C6.93399 17.7802 7.44199 18.1492 8.02999 18.2852C8.48698 17.8107 9.03321 17.4312 9.6373 17.1685C10.2414 16.9058 10.8914 16.7651 11.5501 16.7544C12.2087 16.7437 12.863 16.8633 13.4753 17.1063C14.0876 17.3492 14.6459 17.7108 15.118 18.1702L13.725 19.6052C13.3049 19.196 12.7742 18.919 12.1983 18.8083C11.6225 18.6975 11.0268 18.758 10.485 18.9822C10.799 19.1292 11.105 19.3011 11.389 19.4981C12.119 20.0061 12.905 20.8402 12.905 22.0002H10.905C10.905 21.8152 10.771 21.5051 10.245 21.1402C9.74799 20.7922 9.08499 20.5371 8.52899 20.4251L7.70499 20.2612C7.12695 20.1456 6.57945 19.9104 6.09761 19.5708C5.61576 19.2312 5.21022 18.7947 4.90699 18.2892C4.10599 16.9531 4.44099 15.6172 5.04199 14.6052C5.62799 13.6172 6.53799 12.7892 7.23799 12.2292C8.55999 11.1722 9.81999 9.58215 10.645 8.05015L13.62 2.52615C13.7456 2.29268 13.9588 2.11865 14.2127 2.04233C14.4666 1.96601 14.7405 1.99464 14.974 2.12015ZM17 17.6452C17.0018 16.9142 16.7349 16.2081 16.25 15.6612L17.75 14.3372C18.24 14.8925 18.6004 15.5497 18.8054 16.2613C19.0104 16.9729 19.0547 17.7212 18.9352 18.4521C18.8157 19.1829 18.5353 19.8781 18.1143 20.4874C17.6934 21.0967 17.1423 21.6048 16.501 21.9752L15.499 20.2442C16.399 19.7241 17 18.7542 17 17.6442" fill="#05162C"/>
</svg>
