<svg width="20" height="20" viewBox="0 0 20 20" fill="none" xmlns="http://www.w3.org/2000/svg">
<path d="M14.0167 12.9042C13.7126 12.7514 13.3422 12.87 13.1833 13.1709C13.0365 13.4775 13.1579 13.8453 13.4583 14.0042C14.1917 14.3792 14.6083 14.8376 14.6083 15.2792C14.6083 16.2209 12.6417 17.2709 10.0083 17.2709C7.37501 17.2709 5.40001 16.2292 5.40001 15.3126C5.40001 14.8792 5.81667 14.4126 6.55 14.0376C6.76992 13.9494 6.92107 13.7444 6.94033 13.5083C6.9596 13.2721 6.84367 13.0454 6.64095 12.9227C6.43824 12.8001 6.18359 12.8026 5.98334 12.9292C4.97159 13.3106 4.26624 14.2359 4.16667 15.3126C4.16667 17.1626 6.66667 18.5542 10 18.5542C13.3333 18.5542 15.8333 17.1626 15.8333 15.3126C15.743 14.2266 15.036 13.2894 14.0167 12.9042Z" fill="#99A2AB"/>
<path fill-rule="evenodd" clip-rule="evenodd" d="M9.375 15.6792V12.0792C6.63075 11.7486 4.61878 9.33782 4.78439 6.57869C4.95001 3.81955 7.2359 1.66675 10 1.66675C12.7641 1.66675 15.05 3.81955 15.2156 6.57869C15.3812 9.33782 13.3693 11.7486 10.625 12.0792V15.6792C10.625 16.0244 10.3452 16.3042 10 16.3042C9.65483 16.3042 9.375 16.0244 9.375 15.6792ZM13.6869 5.36769C13.0682 3.87847 11.6126 2.9092 10 2.91257C7.80658 2.91715 6.02959 4.69414 6.02501 6.88757C6.02164 8.50019 6.99091 9.95574 8.48013 10.5744C9.96935 11.1931 11.6847 10.8528 12.825 9.71253C13.9653 8.57224 14.3055 6.85691 13.6869 5.36769Z" fill="#99A2AB"/>
<path d="M7.99167 7.81257C8.33685 7.81257 8.61667 7.53274 8.61667 7.18757C8.61667 6.23027 9.39271 5.45423 10.35 5.45423C10.6952 5.45423 10.975 5.17441 10.975 4.82923C10.975 4.48406 10.6952 4.20423 10.35 4.20423C9.55657 4.20644 8.7965 4.52375 8.23702 5.08636C7.67753 5.64897 7.36446 6.41079 7.36667 7.20423C7.36887 7.36779 7.43595 7.52377 7.55317 7.63786C7.67038 7.75195 7.82812 7.81479 7.99167 7.81257Z" fill="#99A2AB"/>
</svg>
