<svg width="40" height="16" viewBox="0 0 40 16" fill="none" xmlns="http://www.w3.org/2000/svg">
<path d="M7.30881 2.0552C6.84006 2.59359 6.0899 3.01839 5.33983 2.95765C5.24608 2.22969 5.61326 1.45608 6.04303 0.978275C6.51178 0.42472 7.33225 0.0303318 7.99639 0C8.07451 0.75837 7.76975 1.50157 7.30881 2.0552ZM7.98865 3.1018C6.90256 3.04114 5.97279 3.70085 5.45709 3.70085C4.93365 3.70085 4.14443 3.13213 3.28498 3.1473C2.16772 3.16246 1.1285 3.77668 0.558106 4.75503C-0.613925 6.71166 0.253419 9.60872 1.38631 11.2013C1.94107 11.99 2.60522 12.8545 3.48029 12.8242C4.30857 12.7939 4.6367 12.301 5.63686 12.301C6.64475 12.301 6.93389 12.8242 7.80897 12.809C8.71529 12.7939 9.28568 12.0204 9.84045 11.2316C10.4733 10.3368 10.7312 9.46457 10.7468 9.41907C10.7312 9.4039 8.99662 8.75936 8.981 6.81782C8.96537 5.19492 10.3483 4.42138 10.4108 4.37589C9.62943 3.25346 8.41061 3.13213 7.98865 3.1018ZM14.2629 0.902446V12.7257H16.1537V8.68353H18.7712C21.162 8.68353 22.8419 7.09096 22.8419 4.78544C22.8419 2.48 21.1933 0.902521 18.8337 0.902521L14.2629 0.902446ZM16.1537 2.44959H18.3336C19.9744 2.44959 20.912 3.29896 20.912 4.79295C20.912 6.28694 19.9744 7.14396 18.3258 7.14396H16.1537V2.44959ZM26.2954 12.8166C27.483 12.8166 28.5847 12.2327 29.0847 11.3075H29.1238V12.7256H30.874V6.84057C30.874 5.13426 29.4676 4.03458 27.3033 4.03458C25.2952 4.03458 23.8107 5.14942 23.756 6.68133H25.4594C25.6 5.95329 26.2953 5.47549 27.2486 5.47549C28.405 5.47549 29.0535 5.99879 29.0535 6.96197V7.6141L26.6938 7.7506C24.4983 7.87951 23.3107 8.7517 23.3107 10.2685C23.3107 11.8004 24.5373 12.8166 26.2954 12.8166ZM26.8032 11.4136C25.7954 11.4136 25.1546 10.9435 25.1546 10.2229C25.1546 9.47981 25.7719 9.04751 26.9517 8.97926L29.0535 8.85035V9.51765C29.0535 10.6249 28.0847 11.4136 26.8033 11.4136M33.2103 15.9412C35.0543 15.9412 35.9215 15.2587 36.6794 13.1882L40.0001 4.14832H38.0779L35.8512 11.133H35.8121L33.5853 4.14832H31.6085L34.8119 12.7559L34.6401 13.2792C34.351 14.1665 33.8822 14.5078 33.0462 14.5078C32.8977 14.5078 32.6087 14.4927 32.4914 14.4775V15.8957C32.6008 15.926 33.0695 15.9412 33.2102 15.9412" fill="black"/>
</svg>
