<svg width="40" height="31" viewBox="0 0 40 31" fill="none" xmlns="http://www.w3.org/2000/svg">
<g clip-path="url(#clip0_730_2558)">
<path d="M7.27193 30.8459V28.7941C7.27193 28.0075 6.79162 27.4946 5.96833 27.4946C5.55677 27.4946 5.11084 27.6314 4.80208 28.076C4.56208 27.6998 4.21912 27.4946 3.70458 27.4946C3.36146 27.4946 3.01865 27.5971 2.74412 27.9733V27.563H2.0238V30.8459H2.74412V29.0334C2.74412 28.4522 3.05287 28.1785 3.53318 28.1785C4.01318 28.1785 4.25349 28.4863 4.25349 29.0334V30.8459H4.9738V29.0334C4.9738 28.4522 5.31662 28.1785 5.76255 28.1785C6.24287 28.1785 6.48287 28.4863 6.48287 29.0334V30.8459H7.27193ZM17.9393 27.563H16.7732V26.5713H16.0529V27.563H15.4011V28.2126H16.0527V29.7174C16.0527 30.4699 16.3615 30.9143 17.1847 30.9143C17.4935 30.9143 17.8363 30.8118 18.0766 30.675L17.8707 30.0594C17.6649 30.1962 17.4249 30.2304 17.2533 30.2304C16.9104 30.2304 16.7732 30.0253 16.7732 29.6832V28.2126H17.9393V27.563ZM24.0449 27.4945C23.6333 27.4945 23.359 27.6998 23.1874 27.9733V27.563H22.4671V30.8459H23.1874V28.9993C23.1874 28.4522 23.4274 28.1444 23.8733 28.1444C24.0105 28.1444 24.1821 28.1787 24.3193 28.2128L24.5251 27.5289C24.3879 27.4946 24.1821 27.4946 24.0449 27.4946M14.818 27.8367C14.4749 27.5973 13.9947 27.4948 13.4802 27.4948C12.6571 27.4948 12.1083 27.9051 12.1083 28.5549C12.1083 29.1021 12.5199 29.4098 13.2402 29.5124L13.5832 29.5467C13.9605 29.6149 14.1663 29.7176 14.1663 29.8886C14.1663 30.1279 13.8919 30.299 13.4116 30.299C12.9313 30.299 12.5541 30.1279 12.314 29.957L11.971 30.5041C12.3483 30.7777 12.8629 30.9145 13.3772 30.9145C14.3377 30.9145 14.8866 30.47 14.8866 29.8544C14.8866 29.273 14.4407 28.9652 13.7546 28.8627L13.4116 28.8284C13.1029 28.7941 12.8629 28.7259 12.8629 28.5208C12.8629 28.2813 13.1029 28.1445 13.4802 28.1445C13.8919 28.1445 14.3035 28.3154 14.5093 28.4181L14.818 27.8367ZM33.9579 27.4948C33.5461 27.4948 33.2718 27.7 33.1002 27.9735V27.5632H32.3799V30.8461H33.1002V28.9995C33.1002 28.4524 33.3404 28.1445 33.7861 28.1445C33.9235 28.1445 34.0951 28.1788 34.2322 28.2129L34.438 27.5291C34.3008 27.4948 34.0951 27.4948 33.9579 27.4948ZM24.7652 29.2046C24.7652 30.1963 25.4511 30.9145 26.5146 30.9145C26.9947 30.9145 27.3377 30.8119 27.6807 30.5384L27.3377 29.957C27.0633 30.1622 26.789 30.2647 26.4802 30.2647C25.8971 30.2647 25.4855 29.8544 25.4855 29.2046C25.4855 28.5891 25.8971 28.1787 26.4802 28.1445C26.789 28.1445 27.0633 28.247 27.3377 28.4524L27.6807 27.871C27.3377 27.5973 26.9947 27.4948 26.5146 27.4948C25.4511 27.4948 24.7652 28.2129 24.7652 29.2046ZM31.4196 29.2046V27.5632H30.6993V27.9735C30.4591 27.6658 30.1161 27.4948 29.6702 27.4948C28.7441 27.4948 28.0238 28.2129 28.0238 29.2046C28.0238 30.1963 28.7441 30.9145 29.6702 30.9145C30.1504 30.9145 30.4935 30.7436 30.6993 30.4357V30.8461H31.4196V29.2046ZM28.7783 29.2046C28.7783 28.6233 29.1557 28.1445 29.773 28.1445C30.3561 28.1445 30.7679 28.5891 30.7679 29.2046C30.7679 29.786 30.3561 30.2647 29.773 30.2647C29.1557 30.2304 28.7783 29.786 28.7783 29.2046ZM20.169 27.4948C19.2085 27.4948 18.5224 28.1787 18.5224 29.2046C18.5224 30.2306 19.2083 30.9145 20.2032 30.9145C20.6833 30.9145 21.1636 30.7777 21.541 30.47L21.1979 29.957C20.9235 30.1622 20.5805 30.299 20.2376 30.299C19.7916 30.299 19.3457 30.0938 19.2427 29.5123H21.6782V29.2389C21.7126 28.1787 21.0952 27.4948 20.169 27.4948ZM20.1688 28.1103C20.6146 28.1103 20.9235 28.384 20.9919 28.897H19.2769C19.3455 28.4524 19.6543 28.1103 20.1688 28.1103ZM38.0394 29.2046V26.2637H37.3191V27.9735C37.079 27.6658 36.736 27.4948 36.2901 27.4948C35.364 27.4948 34.6436 28.2129 34.6436 29.2046C34.6436 30.1963 35.364 30.9145 36.2901 30.9145C36.7704 30.9145 37.1133 30.7436 37.3191 30.4357V30.8461H38.0394V29.2046ZM35.3983 29.2046C35.3983 28.6233 35.7755 28.1445 36.393 28.1445C36.9761 28.1445 37.3877 28.5891 37.3877 29.2046C37.3877 29.786 36.9761 30.2647 36.393 30.2647C35.7755 30.2304 35.3983 29.786 35.3983 29.2046ZM11.3191 29.2046V27.5632H10.5988V27.9735C10.3586 27.6658 10.0157 27.4948 9.56974 27.4948C8.64365 27.4948 7.92334 28.2129 7.92334 29.2046C7.92334 30.1963 8.64365 30.9145 9.56974 30.9145C10.0501 30.9145 10.393 30.7436 10.5988 30.4357V30.8461H11.3191V29.2046ZM8.64365 29.2046C8.64365 28.6233 9.02099 28.1445 9.63834 28.1445C10.2215 28.1445 10.6332 28.5891 10.6332 29.2046C10.6332 29.786 10.2215 30.2647 9.63834 30.2647C9.02099 30.2304 8.64365 29.786 8.64365 29.2046Z" fill="black"/>
<path d="M14.5778 2.6333H25.3824V21.989H14.5778V2.6333Z" fill="#FF5F00"/>
<path d="M15.2639 12.3111C15.2639 8.37841 17.1161 4.89021 19.963 2.63313C17.8708 0.991688 15.2297 0 12.3484 0C5.52234 0 0 5.50569 0 12.3111C0 19.1164 5.52234 24.6221 12.3483 24.6221C15.2295 24.6221 17.8706 23.6304 19.963 21.9888C17.1161 19.766 15.2639 16.2437 15.2639 12.3111Z" fill="#EB001B"/>
<path d="M39.9603 12.3111C39.9603 19.1163 34.4379 24.6221 27.612 24.6221C24.7308 24.6221 22.0897 23.6304 19.9973 21.9888C22.8786 19.7319 24.6965 16.2437 24.6965 12.3111C24.6965 8.37841 22.8442 4.89021 19.9973 2.63313C22.0895 0.991688 24.7308 0 27.612 0C34.4379 0 39.9603 5.53997 39.9603 12.3111Z" fill="#F79E1B"/>
</g>
<defs>
<clipPath id="clip0_730_2558">
<rect width="40" height="31" fill="white"/>
</clipPath>
</defs>
</svg>
