<svg width="31" height="31" viewBox="0 0 31 31" fill="none" xmlns="http://www.w3.org/2000/svg">
<path d="M15.2727 19.0909C20.0174 19.0909 23.8636 15.387 23.8636 10.8181C23.8636 6.24924 20.0174 2.54541 15.2727 2.54541C10.5281 2.54541 6.68182 6.24924 6.68182 10.8181C6.68182 15.387 10.5281 19.0909 15.2727 19.0909Z" fill="#05162C"/>
<path d="M20.0964 19.8673C20.5164 19.651 21 19.9692 21 20.4401V26.6128C21 27.7583 20.1982 28.3183 19.2055 27.8473L15.7946 26.231C15.5018 26.1037 15.0437 26.1037 14.7509 26.231L11.34 27.8473C10.3473 28.3055 9.54547 27.7455 9.54547 26.6001L9.57093 20.4401C9.57093 19.9692 10.0673 19.6637 10.4746 19.8673C11.9127 20.5928 13.5418 21.0001 15.2727 21.0001C17.0037 21.0001 18.6455 20.5928 20.0964 19.8673Z" fill="#05162C"/>
</svg>
