<svg width="31" height="31" viewBox="0 0 31 31" fill="none" xmlns="http://www.w3.org/2000/svg">
<path d="M16.7872 7.63623H8.64177C8.31086 7.63623 7.99268 7.64896 7.68723 7.68714C4.26359 7.97987 2.54541 10.0035 2.54541 13.7326V18.8235C2.54541 23.9144 4.58177 24.9199 8.64177 24.9199H9.15086C9.43086 24.9199 9.79996 25.1108 9.96541 25.3271L11.4927 27.3635C12.1672 28.2671 13.2618 28.2671 13.9363 27.3635L15.4636 25.3271C15.6545 25.0726 15.96 24.9199 16.2781 24.9199H16.7872C20.5163 24.9199 22.54 23.2144 22.8327 19.778C22.8709 19.4726 22.8836 19.1544 22.8836 18.8235V13.7326C22.8836 9.67259 20.8472 7.63623 16.7872 7.63623ZM8.27268 17.818C7.55996 17.818 6.99996 17.2453 6.99996 16.5453C6.99996 15.8453 7.57268 15.2726 8.27268 15.2726C8.97268 15.2726 9.54541 15.8453 9.54541 16.5453C9.54541 17.2453 8.97268 17.818 8.27268 17.818ZM12.7145 17.818C12.0018 17.818 11.4418 17.2453 11.4418 16.5453C11.4418 15.8453 12.0145 15.2726 12.7145 15.2726C13.4145 15.2726 13.9872 15.8453 13.9872 16.5453C13.9872 17.2453 13.4272 17.818 12.7145 17.818ZM17.169 17.818C16.4563 17.818 15.8963 17.2453 15.8963 16.5453C15.8963 15.8453 16.469 15.2726 17.169 15.2726C17.869 15.2726 18.4418 15.8453 18.4418 16.5453C18.4418 17.2453 17.869 17.818 17.169 17.818Z" fill="#05162C"/>
<path d="M27.9746 8.64177V13.7327C27.9746 16.2781 27.1855 18.009 25.6073 18.9636C25.2255 19.1927 24.78 18.8872 24.78 18.4418L24.7928 13.7327C24.7928 8.64177 21.8782 5.72723 16.7873 5.72723L9.03641 5.73996C8.59096 5.73996 8.2855 5.2945 8.51459 4.91268C9.46914 3.3345 11.2 2.54541 13.7328 2.54541H21.8782C25.9382 2.54541 27.9746 4.58177 27.9746 8.64177Z" fill="#05162C"/>
</svg>
