<svg width="20" height="20" viewBox="0 0 20 20" fill="none" xmlns="http://www.w3.org/2000/svg">
<path d="M11.9667 3.39896L12.7391 2.62656C14.0188 1.34681 16.0937 1.34681 17.3735 2.62656C18.6532 3.90632 18.6532 5.98121 17.3735 7.26096L16.6011 8.03336M11.9667 3.39896C11.9667 3.39896 12.0632 5.04031 13.5115 6.48856C14.9597 7.93681 16.6011 8.03336 16.6011 8.03336M11.9667 3.39896L4.86565 10.5C4.38468 10.981 4.14419 11.2214 3.93737 11.4866C3.6934 11.7994 3.48424 12.1378 3.31358 12.4959C3.1689 12.7995 3.06136 13.1221 2.84626 13.7674L1.9348 16.5018M16.6011 8.03336L9.50004 15.1344C9.01907 15.6154 8.77859 15.8558 8.51343 16.0627C8.20064 16.3066 7.8622 16.5158 7.5041 16.6865C7.20054 16.8311 6.87789 16.9387 6.23261 17.1538L3.49823 18.0652M3.49823 18.0652L2.82983 18.288C2.51228 18.3939 2.16217 18.3112 1.92549 18.0746C1.6888 17.8379 1.60615 17.4878 1.712 17.1702L1.9348 16.5018M3.49823 18.0652L1.9348 16.5018" stroke="#145DB8" stroke-width="1.5"/>
</svg>
