<svg width="16" height="16" viewBox="0 0 16 16" fill="none" xmlns="http://www.w3.org/2000/svg">
<path d="M14.5 7.99979V11.4998C14.5 11.8976 14.342 12.2791 14.0607 12.5605C13.7794 12.8418 13.3978 12.9998 13 12.9998H12C11.6022 12.9998 11.2206 12.8418 10.9393 12.5605C10.658 12.2791 10.5 11.8976 10.5 11.4998V8.99979C10.5 8.60197 10.658 8.22044 10.9393 7.93913C11.2206 7.65783 11.6022 7.49979 12 7.49979H13.4781C13.358 6.1386 12.7339 4.87135 11.728 3.94641C10.7221 3.02148 9.40709 2.50557 8.04062 2.49979H8C6.62782 2.49973 5.30517 3.01258 4.29173 3.93768C3.27828 4.86278 2.64724 6.1333 2.5225 7.49979H4C4.39782 7.49979 4.77936 7.65783 5.06066 7.93913C5.34196 8.22044 5.5 8.60197 5.5 8.99979V11.4998C5.5 11.8976 5.34196 12.2791 5.06066 12.5605C4.77936 12.8418 4.39782 12.9998 4 12.9998H3C2.60218 12.9998 2.22064 12.8418 1.93934 12.5605C1.65804 12.2791 1.5 11.8976 1.5 11.4998V7.99979C1.5014 6.71223 1.88476 5.45403 2.60156 4.38444C3.31836 3.31485 4.33638 2.48196 5.52674 1.9912C6.71711 1.50044 8.02632 1.37386 9.28866 1.6275C10.551 1.88114 11.7097 2.50358 12.6181 3.41604C13.2179 4.01871 13.6929 4.73382 14.0158 5.52039C14.3388 6.30696 14.5033 7.14952 14.5 7.99979Z" fill="#05162C"/>
</svg>
