<svg width="31" height="31" viewBox="0 0 31 31" fill="none" xmlns="http://www.w3.org/2000/svg">
<path d="M11.4545 2.54541C8.11997 2.54541 5.40906 5.25632 5.40906 8.59086C5.40906 11.8618 7.96724 14.509 11.3018 14.6236C11.4036 14.6109 11.5054 14.6109 11.5818 14.6236C11.6072 14.6236 11.62 14.6236 11.6454 14.6236C11.6581 14.6236 11.6581 14.6236 11.6709 14.6236C14.9291 14.509 17.4872 11.8618 17.5 8.59086C17.5 5.25632 14.7891 2.54541 11.4545 2.54541Z" fill="#05162C"/>
<path d="M17.92 18.0089C14.3691 15.6416 8.5782 15.6416 5.00184 18.0089C3.38548 19.0907 2.49457 20.5543 2.49457 22.1198C2.49457 23.6852 3.38548 25.1361 4.98911 26.2052C6.77093 27.4016 9.11275 27.9998 11.4546 27.9998C13.7964 27.9998 16.1382 27.4016 17.92 26.2052C19.5237 25.1234 20.4146 23.6725 20.4146 22.0943C20.4018 20.5289 19.5237 19.0779 17.92 18.0089Z" fill="#05162C"/>
<path d="M25.4418 9.34203C25.6455 11.8111 23.8891 13.9748 21.4582 14.2675C21.4455 14.2675 21.4455 14.2675 21.4327 14.2675H21.3946C21.3182 14.2675 21.2418 14.2675 21.1782 14.2929C19.9436 14.3566 18.8109 13.962 17.9582 13.2366C19.2691 12.0657 20.02 10.3093 19.8673 8.40022C19.7782 7.36931 19.4218 6.42749 18.8873 5.62567C19.3709 5.38385 19.9309 5.23113 20.5036 5.18022C22.9982 4.96385 25.2255 6.82203 25.4418 9.34203Z" fill="#05162C"/>
<path d="M27.9873 21.1144C27.8855 22.349 27.0964 23.418 25.7728 24.1435C24.5 24.8435 22.8964 25.1744 21.3055 25.1362C22.2218 24.309 22.7564 23.278 22.8582 22.1835C22.9855 20.6053 22.2346 19.0908 20.7328 17.8817C19.88 17.2071 18.8873 16.6726 17.8055 16.278C20.6182 15.4635 24.1564 16.0108 26.3328 17.7671C27.5037 18.709 28.1018 19.8926 27.9873 21.1144Z" fill="#05162C"/>
</svg>
