<svg width="24" height="24" viewBox="0 0 24 24" fill="none" xmlns="http://www.w3.org/2000/svg">
<path d="M10.125 18C10.125 18 10.875 17.25 12 17.25C13.125 17.25 13.875 18 13.875 18M21.75 12C21.75 17.385 17.385 21.75 12 21.75C6.615 21.75 2.25 17.385 2.25 12C2.25 6.615 6.615 2.25 12 2.25C17.385 2.25 21.75 6.615 21.75 12ZM17.25 13.5C17.25 13.6989 17.171 13.8897 17.0303 14.0303C16.8897 14.171 16.6989 14.25 16.5 14.25C16.3011 14.25 16.1103 14.171 15.9697 14.0303C15.829 13.8897 15.75 13.6989 15.75 13.5C15.75 13.3011 15.829 13.1103 15.9697 12.9697C16.1103 12.829 16.3011 12.75 16.5 12.75C16.6989 12.75 16.8897 12.829 17.0303 12.9697C17.171 13.1103 17.25 13.3011 17.25 13.5ZM8.25 13.5C8.25 13.6989 8.17098 13.8897 8.03033 14.0303C7.88968 14.171 7.69891 14.25 7.5 14.25C7.30109 14.25 7.11032 14.171 6.96967 14.0303C6.82902 13.8897 6.75 13.6989 6.75 13.5C6.75 13.3011 6.82902 13.1103 6.96967 12.9697C7.11032 12.829 7.30109 12.75 7.5 12.75C7.69891 12.75 7.88968 12.829 8.03033 12.9697C8.17098 13.1103 8.25 13.3011 8.25 13.5Z" stroke="#05162C" stroke-linecap="round" stroke-linejoin="round"/>
</svg>
