<svg width="20" height="20" viewBox="0 0 20 20" fill="none" xmlns="http://www.w3.org/2000/svg">
<g clip-path="url(#clip0_598_971)">
<path d="M1.6665 4.38106C1.6665 2.88192 2.97234 1.66663 4.58317 1.66663C6.194 1.66663 7.49984 2.88192 7.49984 4.38106C7.49984 5.86845 6.56894 7.6041 5.11653 8.22477C4.77795 8.36946 4.38839 8.36946 4.04981 8.22477C2.5974 7.6041 1.6665 5.86845 1.6665 4.38106Z" stroke="#6D7379" stroke-width="1.5"/>
<path d="M12.5 14.3811C12.5 12.8819 13.8058 11.6666 15.4167 11.6666C17.0275 11.6666 18.3333 12.8819 18.3333 14.3811C18.3333 15.8684 17.4024 17.6041 15.95 18.2248C15.6114 18.3695 15.2219 18.3695 14.8833 18.2248C13.4309 17.6041 12.5 15.8684 12.5 14.3811Z" stroke="#6D7379" stroke-width="1.5"/>
<path d="M15.4165 14.5834H15.424" stroke="#6D7379" stroke-width="2" stroke-linecap="round" stroke-linejoin="round"/>
<path d="M4.57568 4.58337H4.58318" stroke="#6D7379" stroke-width="2" stroke-linecap="round" stroke-linejoin="round"/>
<path d="M10.0001 3.41663C9.58589 3.41663 9.2501 3.75241 9.2501 4.16663C9.2501 4.58084 9.58589 4.91663 10.0001 4.91663V3.41663ZM10.0001 15.8333L10.5304 16.3636C10.8233 16.0707 10.8233 15.5959 10.5304 15.303L10.0001 15.8333ZM14.3381 7.2394L14.7408 7.87214L14.3381 7.2394ZM5.66208 12.7605L6.06473 13.3933H6.06473L5.66208 12.7605ZM9.28043 14.053C8.98754 13.7601 8.51266 13.7601 8.21977 14.053C7.92688 14.3459 7.92688 14.8207 8.21977 15.1136L9.28043 14.053ZM8.21977 16.553C7.92688 16.8459 7.92688 17.3207 8.21977 17.6136C8.51266 17.9065 8.98754 17.9065 9.28043 17.6136L8.21977 16.553ZM13.4433 4.16663V3.41663H10.0001V4.16663V4.91663H13.4433V4.16663ZM10.0001 15.8333V15.0833H6.55686V15.8333V16.5833H10.0001V15.8333ZM14.3381 7.2394L13.9355 6.60665L5.25942 12.1278L5.66208 12.7605L6.06473 13.3933L14.7408 7.87214L14.3381 7.2394ZM10.0001 15.8333L10.5304 15.303L9.28043 14.053L8.7501 14.5833L8.21977 15.1136L9.46977 16.3636L10.0001 15.8333ZM10.0001 15.8333L9.46977 15.303L8.21977 16.553L8.7501 17.0833L9.28043 17.6136L10.5304 16.3636L10.0001 15.8333ZM6.55686 15.8333V15.0833C5.63979 15.0833 5.29102 13.8856 6.06473 13.3933L5.66208 12.7605L5.25942 12.1278C3.21967 13.4258 4.13911 16.5833 6.55686 16.5833V15.8333ZM13.4433 4.16663V4.91663C14.3604 4.91663 14.7092 6.11429 13.9355 6.60665L14.3381 7.2394L14.7408 7.87214C16.7805 6.57411 15.8611 3.41663 13.4433 3.41663V4.16663Z" fill="#6D7379"/>
</g>
<defs>
<clipPath id="clip0_598_971">
<rect width="20" height="20" fill="white"/>
</clipPath>
</defs>
</svg>
