<svg width="20" height="20" viewBox="0 0 20 20" fill="none" xmlns="http://www.w3.org/2000/svg">
<path d="M7.9165 11.6666C9.29722 11.6666 10.4165 12.7859 10.4165 14.1666C10.4165 15.5473 9.29722 16.6666 7.9165 16.6666C6.53579 16.6666 5.4165 15.5473 5.4165 14.1666C5.4165 12.7859 6.53579 11.6666 7.9165 11.6666Z" stroke="#6D7379" stroke-width="1.5"/>
<path d="M12.0835 3.33335C10.7028 3.33335 9.5835 4.45264 9.5835 5.83335C9.5835 7.21407 10.7028 8.33335 12.0835 8.33335C13.4642 8.33335 14.5835 7.21407 14.5835 5.83335C14.5835 4.45264 13.4642 3.33335 12.0835 3.33335Z" stroke="#6D7379" stroke-width="1.5"/>
<path d="M12.5 14.1321L18.3333 14.1321" stroke="#6D7379" stroke-width="1.5" stroke-linecap="round"/>
<path d="M7.5 5.79871L1.66667 5.79871" stroke="#6D7379" stroke-width="1.5" stroke-linecap="round"/>
<path d="M1.6665 14.1321L3.33317 14.1321" stroke="#6D7379" stroke-width="1.5" stroke-linecap="round"/>
<path d="M18.3335 5.79871L16.6668 5.79871" stroke="#6D7379" stroke-width="1.5" stroke-linecap="round"/>
</svg>
